<svg width="88" height="23" viewBox="0 0 88 23" fill="none" xmlns="http://www.w3.org/2000/svg">
<path d="M7.52 1.296H12V18.096C12 20.912 10.6773 22.32 8.032 22.32H4.32C1.67467 22.32 0.352 20.912 0.352 18.096V15.504H4.608V18.608C4.608 18.7787 4.66133 18.928 4.768 19.056C4.896 19.184 5.04533 19.248 5.216 19.248H6.912C7.08267 19.248 7.22133 19.184 7.328 19.056C7.456 18.928 7.52 18.7787 7.52 18.608V1.296ZM13.0945 5.104V1.296H24.2945V5.104H20.9345V22H16.4545V5.104H13.0945ZM32.005 13.776V10.48H37.925V18.096C37.925 20.912 36.6023 22.32 33.957 22.32H29.925C27.2797 22.32 25.957 20.912 25.957 18.096V5.2C25.957 2.384 27.2797 0.976 29.925 0.976H33.957C36.6023 0.976 37.925 2.384 37.925 5.2V7.152H33.669V4.656C33.669 4.48533 33.605 4.336 33.477 4.208C33.3703 4.08 33.2317 4.016 33.061 4.016H31.045C30.8743 4.016 30.725 4.08 30.597 4.208C30.4903 4.336 30.437 4.48533 30.437 4.656V18.608C30.437 18.7787 30.4903 18.928 30.597 19.056C30.725 19.184 30.8743 19.248 31.045 19.248H33.061C33.2317 19.248 33.3703 19.184 33.477 19.056C33.605 18.928 33.669 18.7787 33.669 18.608V13.776H32.005ZM47.4345 6.064C50.0798 6.064 51.4025 7.472 51.4025 10.288V15.344H44.1385V18.608C44.1385 18.7787 44.1918 18.928 44.2985 19.056C44.4265 19.184 44.5758 19.248 44.7465 19.248H46.5065C46.6772 19.248 46.8158 19.184 46.9225 19.056C47.0505 18.928 47.1145 18.7787 47.1145 18.608V16.88H51.4025V18.096C51.4025 20.912 50.0798 22.32 47.4345 22.32H43.8185C41.1732 22.32 39.8505 20.912 39.8505 18.096V10.288C39.8505 7.472 41.1732 6.064 43.8185 6.064H47.4345ZM44.1385 12.528H47.1145V9.648C47.1145 9.47733 47.0505 9.328 46.9225 9.2C46.8158 9.072 46.6772 9.008 46.5065 9.008H44.7465C44.5758 9.008 44.4265 9.072 44.2985 9.2C44.1918 9.328 44.1385 9.47733 44.1385 9.648V12.528ZM61.3088 6.384H64.9248V22H61.3088V20.848C60.6474 21.8293 59.5488 22.32 58.0128 22.32H57.3408C54.6954 22.32 53.3728 20.912 53.3728 18.096V10.288C53.3728 7.472 54.6954 6.064 57.3408 6.064H58.0128C59.5488 6.064 60.6474 6.55467 61.3088 7.536V6.384ZM60.6368 18.608V9.776C60.6368 9.60533 60.5728 9.456 60.4448 9.328C60.3381 9.2 60.1994 9.136 60.0288 9.136H58.2688C58.0981 9.136 57.9488 9.2 57.8208 9.328C57.7141 9.456 57.6608 9.60533 57.6608 9.776V18.608C57.6608 18.7787 57.7141 18.928 57.8208 19.056C57.9488 19.184 58.0981 19.248 58.2688 19.248H60.0288C60.1994 19.248 60.3381 19.184 60.4448 19.056C60.5728 18.928 60.6368 18.7787 60.6368 18.608ZM73.1535 19.536H74.4335V22.32H71.4255C68.7802 22.32 67.4575 20.912 67.4575 18.096V2.992H71.7455V6.384H74.4335V9.488H71.7455V18C71.7455 18.5973 71.8628 19.0027 72.0975 19.216C72.3322 19.4293 72.6842 19.536 73.1535 19.536ZM83.6522 12.208C86.2976 12.208 87.6202 13.616 87.6202 16.432V18.096C87.6202 20.912 86.2976 22.32 83.6522 22.32H80.1002C77.4549 22.32 76.1322 20.912 76.1322 18.096V17.104H80.1002V18.512C80.1002 18.6827 80.1536 18.832 80.2602 18.96C80.3882 19.088 80.5376 19.152 80.7082 19.152H83.3322C83.5029 19.152 83.6416 19.088 83.7483 18.96C83.8762 18.832 83.9402 18.6827 83.9402 18.512V16.592C83.9402 16.4213 83.8762 16.272 83.7483 16.144C83.6416 16.016 83.5029 15.952 83.3322 15.952H80.0362C77.3909 15.952 76.0682 14.544 76.0682 11.728V10.288C76.0682 7.472 77.3909 6.064 80.0362 6.064H83.3962C86.0416 6.064 87.3643 7.472 87.3643 10.288V10.864H83.3962V9.872C83.3962 9.70133 83.3322 9.552 83.2042 9.424C83.0976 9.296 82.9589 9.232 82.7882 9.232H80.3562C80.1856 9.232 80.0362 9.296 79.9082 9.424C79.8016 9.552 79.7482 9.70133 79.7482 9.872V11.568C79.7482 11.7387 79.8016 11.888 79.9082 12.016C80.0362 12.144 80.1856 12.208 80.3562 12.208H83.6522Z" fill="white"/>
</svg>
