<svg width="16" height="17" viewBox="0 0 16 17" fill="none" xmlns="http://www.w3.org/2000/svg">
<path d="M13.6121 6.72554L10.0148 6.17806L8.40666 2.7641C8.36274 2.67063 8.29048 2.59496 8.20122 2.54897C7.97736 2.43324 7.70532 2.52968 7.59339 2.7641L5.98528 6.17806L2.38791 6.72554C2.28873 6.74038 2.19805 6.78934 2.12863 6.86352C2.0447 6.95386 1.99845 7.07539 2.00004 7.20142C2.00163 7.32745 2.05094 7.44766 2.13713 7.53563L4.73987 10.1929L4.12496 13.9452C4.11054 14.0324 4.11976 14.1222 4.15159 14.2043C4.18341 14.2864 4.23655 14.3575 4.305 14.4095C4.37344 14.4616 4.45444 14.4925 4.53882 14.4988C4.6232 14.5051 4.70757 14.4865 4.78238 14.4452L8.00003 12.6736L11.2177 14.4452C11.3055 14.4941 11.4075 14.5104 11.5053 14.4926C11.7518 14.4481 11.9176 14.2033 11.8751 13.9452L11.2602 10.1929L13.8629 7.53563C13.9338 7.46293 13.9805 7.36798 13.9947 7.26412C14.033 7.00447 13.8601 6.76412 13.6121 6.72554V6.72554Z" fill="#1B1C21"/>
</svg>
